<svg width="166" height="40" viewBox="0 0 166 40" fill="none" xmlns="http://www.w3.org/2000/svg">
<path d="M52.8832 35.8006C53.2236 35.0576 53.2547 34.7482 53.2547 32.7779C52.3713 32.9182 51.182 33.0919 49.7235 33.4024C47.216 33.9476 46.787 34.8874 46.787 35.8305C46.787 36.914 47.6439 37.8285 49.3255 37.8285C50.8898 37.8285 52.2321 37.1981 52.8832 35.8006ZM55.9818 39.5216L53.6262 39.5331C53.6262 39.5331 53.4215 38.5784 53.357 37.5444C52.6715 38.2517 51.4017 39.7217 48.8413 39.7217C46.2188 39.7217 44.2715 38.1643 44.2715 35.888C44.2715 35.1715 44.4716 34.4595 44.8696 33.8614C45.6425 32.7203 47.0757 31.8082 51.0911 31.4931L53.2236 31.3228V30.9812C53.2236 29.5837 53.2236 27.2465 50.2158 27.2465C48.3214 27.2465 47.6819 28.1632 47.4576 28.9925L45.3745 28.1218C45.4079 28.0493 45.4459 27.9734 45.4838 27.9009C46.2867 26.4206 47.8556 25.5073 50.133 25.5073C51.3787 25.5073 52.997 25.8213 54.0541 26.6484C55.554 27.7882 55.5241 30.0311 55.5241 30.0311L55.6115 36.9485C55.6115 36.9485 55.6943 38.9568 55.9818 39.5216ZM131.253 35.8006C131.595 35.0576 131.622 34.7482 131.622 32.7779C130.742 32.9182 129.55 33.0919 128.091 33.4024C125.587 33.9476 125.159 34.8874 125.159 35.8305C125.159 36.914 126.015 37.8285 127.693 37.8285C129.262 37.8285 130.599 37.1981 131.253 35.8006ZM134.351 39.5216L131.993 39.5331C131.993 39.5331 131.788 38.5784 131.725 37.5444C131.043 38.2517 129.773 39.7217 127.208 39.7217C124.588 39.7217 122.644 38.1643 122.644 35.888C122.644 35.1715 122.844 34.4595 123.242 33.8614C124.015 32.7203 125.443 31.8082 129.458 31.4931L131.595 31.3228V30.9812C131.595 29.5837 131.595 27.2465 128.584 27.2465C126.694 27.2465 126.045 28.1632 125.829 28.9925L123.746 28.1218C123.776 28.0493 123.814 27.9734 123.855 27.9009C124.656 26.4206 126.227 25.5073 128.501 25.5073C129.75 25.5073 131.368 25.8213 132.424 26.6484C133.925 27.7882 133.888 30.0311 133.888 30.0311L133.982 36.9485C133.982 36.9485 134.059 38.9568 134.351 39.5216ZM108.625 36.937C107.852 38.2517 106.362 39.7562 103.424 39.7562C99.4405 39.7562 97.1539 37.0509 97.1539 32.5122C97.1539 27.4466 100.495 25.5073 103.34 25.5073C105.817 25.5073 108.187 26.8761 108.984 30.2623C109.238 31.4022 109.238 32.4293 109.238 32.9976H99.5475C99.4911 35.2508 100.438 38.1045 103.624 38.0516C104.924 38.0286 105.84 37.4374 106.423 36.5126L108.625 36.937ZM99.6084 31.3723H106.76C106.56 27.8446 104.526 27.2465 103.169 27.2465C101.234 27.2465 99.8615 28.667 99.6084 31.3723ZM82.8854 36.937C82.1125 38.2517 80.6241 39.7562 77.6876 39.7562C73.7021 39.7562 71.4097 37.0509 71.4097 32.5122C71.4097 27.4466 74.7557 25.5073 77.6002 25.5073C80.0743 25.5073 82.446 26.8761 83.2454 30.2623C83.4985 31.4022 83.4985 32.4293 83.4985 32.9976H73.8114C73.7515 35.2508 74.6982 38.1045 77.8843 38.0516C79.184 38.0286 80.1007 37.4374 80.6851 36.5126L82.8854 36.937ZM73.8689 31.3723H81.0209C80.8208 27.8446 78.786 27.2465 77.4299 27.2465C75.4941 27.2465 74.1231 28.667 73.8689 31.3723ZM119.973 36.255C119.498 37.1809 118.609 38.0171 116.858 38.0171C115.335 38.0171 112.78 37.0578 112.78 32.6111C112.78 31.4137 112.996 27.174 116.717 27.174C118.596 27.174 119.461 28.1965 119.861 29.0811L121.984 28.1942C120.677 26.018 118.32 25.5108 116.634 25.5108C112.338 25.5108 110.262 28.9672 110.262 32.7813C110.262 36.0813 112.062 39.7562 116.831 39.7562C119.592 39.7562 121.132 38.422 121.973 37.0923L119.973 36.255ZM84.8028 26.0261V39.5216H87.0665V31.868C87.0665 30.8673 87.0665 29.8448 88.0683 28.8487C88.7837 28.1367 89.6441 27.8262 90.6436 27.8262C91.8744 27.8262 93.1362 28.3944 93.5341 29.6746C93.6791 30.1289 93.679 30.5269 93.679 31.8945V39.5216H95.9369V31.5241C95.9369 30.3831 95.9369 29.5607 95.7057 28.7625C95.0513 26.5379 92.9924 25.6776 91.2717 25.6776C90.4734 25.6776 88.3259 25.8777 87.0665 28.0804V26.0261H84.8028ZM57.5852 21.7795V23.9649H67.6703L57.5772 37.2142V39.5216H70.6138V37.3914H60.3159L70.3596 23.9914V21.7795H57.5852ZM37.3081 26.0261V39.5216H39.5694V33.3162C39.5694 32.159 39.5395 30.788 40.1422 29.8103C40.8772 28.6141 41.9676 28.1597 44.1875 28.1436V25.8064C43.2754 25.8363 40.8542 25.8938 39.5694 28.4392V26.0261H37.3081ZM32.8107 21.7749L30.4769 22.7491V26.0261H28.3364V27.9124H30.4769V36.5782C30.447 38.3403 30.447 39.6124 33.0684 39.6124C33.9253 39.6124 34.8639 39.4422 35.2618 39.3859V37.5168C34.8075 37.6582 34.2094 37.8285 33.7804 37.8285C32.8107 37.8285 32.8107 37.1464 32.8107 35.5556V27.9124H35.2618V26.0261H32.8107V21.7749ZM25.4723 35.7627C25.4723 37.2096 24.298 37.9791 22.2943 37.9791C20.6759 37.9791 19.589 37.5248 18.9863 36.4781L16.5915 36.8991C17.5232 38.8061 19.4636 39.7183 22.1954 39.7183C25.9037 39.7183 27.8406 37.6651 27.8406 35.4786C27.8406 32.6674 25.2492 31.906 22.2667 31.3033C20.8278 31.0157 19.1381 30.4809 19.1381 29.2053C19.1381 28.2966 20.0238 27.2465 21.8008 27.2465C23.6159 27.2465 24.6994 28.4806 24.8662 28.9695L26.9688 28.0942C26.006 26.2573 24.0783 25.5073 22.0585 25.5073C18.9403 25.5073 16.8722 27.0463 16.8722 29.4894C16.8722 32.2695 19.2554 32.8158 21.5628 33.3162C23.548 33.7429 25.4723 34.2317 25.4723 35.7627ZM13.6596 39.5216H16.1487L9.68906 21.7749H7.22645L0.467773 39.5216H2.9787L4.96397 34.0799H11.7272L13.6596 39.5216ZM5.71851 32.0923L8.43417 24.7183L11.0222 32.0923H5.71851Z" fill="#7D0F4F"/>
<path d="M159.666 16.6308C157.009 15.7072 150.437 13.2573 143.503 12.3451C141.12 12.0323 140.159 12.8788 141.143 15.1517C142.108 17.3946 144.62 21.1535 147.251 23.9727C149.879 26.7919 152.733 27.5487 153.638 23.2066C153.672 23.0525 153.702 22.8972 153.732 22.7454C153.952 21.6274 154.115 20.545 154.198 19.5972C153.032 19.0681 151.725 18.5034 150.417 17.9513C150.49 18.9485 150.607 20.6681 150.668 21.9908C150.675 22.1611 150.683 22.3244 150.686 22.4843C150.766 24.6283 150.035 24.6202 148.815 23.7449C147.395 22.7293 143.044 16.9828 142.545 14.4454C142.523 14.2786 142.602 14.2729 142.688 14.2993C142.72 14.312 142.753 14.3258 142.795 14.3431C142.799 14.3431 142.802 14.3454 142.806 14.3454C143.789 14.7318 147.058 16.0212 150.379 17.421C151.706 17.98 153.036 18.554 154.233 19.0958C155.41 19.6283 156.461 20.1263 157.245 20.545C158.679 21.3134 159.237 21.8356 158.636 22.4498C155.645 25.4841 145.213 29.7997 141.609 35.1344C141.609 35.1344 141.594 35.1528 141.571 35.1873C141.53 35.2436 141.492 35.3081 141.454 35.3759C141.442 35.3955 141.435 35.4185 141.423 35.4369C141.245 35.7624 140.991 36.3306 140.902 37.0219C140.75 38.1871 141.355 39.2522 143.029 39.7042C143.449 39.8284 143.927 39.9193 144.45 39.9722C144.541 39.9791 144.643 39.9883 144.746 39.9906C147.962 40.147 156.312 38.317 158.854 37.1875C161.479 36.0212 160.696 34.8618 159.934 34.2591C159.365 33.8047 156.441 32.1749 155.024 31.3904C154.646 31.6331 154.346 31.8229 153.971 32.0656C156.385 33.539 157.339 34.2706 157.904 34.703C158.119 34.8733 158.002 35.0734 157.68 35.0964C157.592 35.1033 157.521 35.1068 157.422 35.1148C155.131 35.2736 150.789 35.5784 148.751 35.6865C148.452 35.706 148.115 35.721 147.928 35.7279C148.432 35.2551 149.001 34.8273 149.281 34.6294C153.638 31.5653 160.905 27.2577 163.044 25.4047C164.621 24.0405 168.924 19.8629 159.666 16.6308ZM149.092 28.1629C148.74 28.3872 148.387 28.6103 148.038 28.8415C143.973 26.5825 135.237 22.2301 134.479 21.8356C133.668 21.4157 132.254 20.8487 132.434 19.5029C132.683 17.6143 135.959 13.4815 137.351 11.7838C144.887 2.56829 148.262 -0.275051 150.501 0.0205536C152.888 0.332264 154.213 2.79948 154.373 14.3511C153.042 13.9393 151.57 13.5161 150.004 13.125C149.876 11.4468 149.564 8.91288 149.444 8.03872C149.311 7.05183 149.119 6.67686 148.721 6.6228C148.27 6.56529 147.171 7.62004 146.174 8.64028C145.72 9.10267 144.438 10.399 143.026 11.8229C141.845 11.7459 141.056 11.992 140.62 12.5671C140.272 13.0318 140.195 13.6667 140.404 14.465C139.639 15.2276 138.983 15.8866 138.567 16.3007C136.994 17.8685 135.335 19.1648 135.248 19.8008C135.18 20.3196 135.976 20.8579 137.107 21.5331C139.874 23.1848 146.683 26.8666 149.092 28.1629Z" fill="#F9A70D"/>
</svg>
