<svg width="150" height="24" viewBox="0 0 150 24" fill="none" xmlns="http://www.w3.org/2000/svg">
<path d="M128.107 23.3582C129.641 23.3582 130.892 22.694 131.84 21.7467C131.918 21.6686 132.573 21.0826 133.384 20.2036C133.892 19.7642 134.478 19.4028 135.211 19.3247C135.358 19.3247 135.651 19.3247 135.729 19.3247C135.944 19.3247 136.237 19.3247 136.462 19.3247C137.263 19.4712 137.996 19.6958 138.661 19.9888L145.11 22.6257C145.11 22.6257 146.723 23.3582 148.042 23.3582H148.999C149.293 23.3582 149.508 23.1335 149.508 22.8405V20.4283C149.508 18.8168 148.56 17.2738 146.947 16.5413L145.481 15.9553C144.309 15.5159 143.058 14.715 142.403 14.0509C142.403 14.0509 141.084 12.5176 142.618 11.0527L148.335 5.2613C149.068 4.4507 149.508 3.42525 149.508 2.39979C149.508 2.39979 149.508 1.96031 149.361 1.59896C149.293 1.30597 149.068 1.01298 148.921 0.866486C148.56 0.495369 148.042 0.280518 147.455 0.280518H146.508C145.042 0.280518 143.723 0.934849 142.765 1.89194C142.696 1.96031 138.954 5.70078 137.928 6.72624L132.719 12V3.64987C132.719 1.81382 131.185 0.280518 129.28 0.280518H127.814C127.442 0.280518 126.856 0.280511 126.641 0.427005C126.416 0.495369 126.416 0.788363 126.416 1.01298V22.8405C126.416 23.1335 126.641 23.3582 126.934 23.3582H128.107Z" fill="#007BBC"/>
<path d="M100.833 20.5748C100.765 20.5748 99.5923 20.2036 97.1689 18.2992C95.9278 17.3519 95.0484 16.6194 94.6086 16.3265C95.0484 16.0335 96.5142 15.4475 97.8334 13.9044C98.6347 12.9571 99.0744 11.7852 99.0744 10.3202C99.0744 8.92364 98.7129 7.60519 97.9018 6.43324C97.1005 5.18317 96.0744 4.08936 94.8236 3.21039C93.5044 2.33143 92.1168 1.59896 90.5044 1.08135C88.9604 0.495372 87.4262 0.280518 85.8823 0.280518H76.5012C76.208 0.280518 75.9833 0.495371 75.9833 0.788363V16.3948V19.9107V21.0826V22.6257C75.9833 22.8405 75.9833 23.0652 76.208 23.2117C76.5012 23.3581 77.1559 23.3582 77.5272 23.3582C78.0354 23.3582 78.6217 23.3581 79.1396 23.1335C79.9409 22.9187 80.6054 22.3327 81.1136 21.6686C82.0028 20.4966 82.2178 19.1782 82.2178 17.7914V8.33766C82.2178 8.19117 82.2178 7.89819 82.296 7.68333C82.3644 7.45871 82.5109 7.24385 82.5109 7.24385C83.1754 5.99377 85.5891 5.48593 88.2275 6.14027C91.7454 7.01923 92.7715 9.44125 92.4099 10.4667C91.9702 11.5605 90.7194 12.2246 89.1852 12.2246C88.3741 12.2246 87.6412 12.1465 86.8399 11.8535C86.8399 11.8535 86.322 11.707 85.9605 11.5605C85.7357 11.5605 85.3741 11.3457 85.1494 11.3457C84.8562 11.3457 84.7096 11.5605 84.7096 12V14.4904C84.7096 15.301 85.081 16.1018 85.5891 16.5413L93.2112 22.5475C93.9441 23.0652 94.7552 23.3582 95.6347 23.3582H100.618C100.98 23.3582 101.127 23.1335 101.127 22.694V21.1607C101.127 20.8677 100.98 20.6431 100.833 20.5748Z" fill="#007BBC"/>
<path d="M70.3448 17.3519H63.6706C62.7227 17.3519 61.8432 17.1273 60.9638 16.7659C60.2993 16.4729 59.2048 15.5159 58.8335 15.1545C58.2472 14.4904 57.739 13.6896 57.4459 12.8106C57.0745 11.9316 56.8595 10.9746 56.8595 10.0272C56.8595 8.85528 57.2211 7.89819 57.954 7.24385C58.0322 7.16572 58.3253 6.95086 58.6185 6.72624C58.9801 6.51138 59.3514 6.43324 59.6446 6.36488C60.0061 6.28675 60.4458 6.21839 60.8856 6.21839C61.4035 6.21839 61.8432 6.28675 62.2048 6.36488C62.9377 6.51137 63.7488 6.80437 64.4817 7.24385C65.5077 7.89819 66.6022 8.92364 67.3351 9.88073H60.3775C59.9377 9.88073 59.713 10.0956 59.713 10.4667C59.713 11.1992 59.8595 11.6387 60.1527 12.2246C60.4459 12.8106 61.7651 14.8615 64.4817 14.8615H70.9996C72.1038 14.8615 72.9051 14.5685 73.3448 13.9826C73.7846 13.3184 73.9311 12.8106 73.9311 12C73.9311 10.6816 73.5696 9.36312 72.8367 7.97632C72.1722 6.57974 71.2243 5.32967 69.9735 4.15772C68.8009 2.98577 67.4133 2.10681 65.8693 1.37434C64.2569 0.641871 62.5761 0.280518 60.8856 0.280518H51.2798C51.0648 0.280518 50.84 0.495371 50.84 0.788363V10.2421C50.84 12.0781 51.1332 13.7579 51.8661 15.301C52.5306 16.9124 53.4882 18.2992 54.6609 19.4712C55.8335 20.6431 57.2211 21.6002 58.7651 22.3327C60.3774 22.987 62.0582 23.3582 63.8172 23.3582H73.423C73.7162 23.3582 73.9311 23.1335 73.9311 22.9187V20.9361C73.9311 19.8423 73.5696 18.9633 72.9833 18.2992C72.3188 17.7133 71.4393 17.3519 70.3448 17.3519Z" fill="#007BBC"/>
<path d="M48.7195 3.64987C48.7195 1.81382 47.1756 0.280518 45.27 0.280518H41.6837C41.5371 0.280518 41.3906 0.348875 41.244 0.427005L33.9834 7.24385C31.5697 9.58774 28.1984 10.8281 24.5339 10.8281C20.7131 10.8281 17.2734 9.44125 14.7815 6.95086C14.7815 6.95086 9.50467 1.96031 9.42649 1.89194C8.40043 0.934849 7.01282 0.280518 5.40044 0.280518H1.07147C0.709911 0.280518 0.416748 0.573501 0.416748 0.93485V19.9888C0.416748 21.8932 1.95095 23.3582 3.78808 23.3582H5.10729H6.05516C6.4265 23.3582 6.71966 23.0652 6.71966 22.694V15.9553C6.71966 14.129 8.18545 12.6641 9.86623 12.6641C13.1691 12.6641 15.4362 15.4475 17.5665 17.3519C20.1268 19.6177 22.1105 21.8151 24.5339 21.8151C27.0258 21.8151 28.9997 19.6177 31.5697 17.3519C33.6903 15.4475 35.9671 12.6641 39.1919 12.6641C40.9508 12.6641 42.4166 14.129 42.4166 15.887V19.9888C42.4166 21.8932 43.9508 23.3582 45.7879 23.3582H47.2537C47.6935 23.3582 48.055 23.3582 48.055 23.3582C48.4264 23.3582 48.7195 23.0652 48.7195 22.694V3.64987Z" fill="#007BBC"/>
<path d="M123.778 13.6896H120.338C119.019 13.6896 118.208 14.2755 117.768 15.3694C117.553 16.1018 117.182 16.6878 116.596 17.1273C116.087 17.5668 115.355 17.7914 114.475 17.7914C113.664 17.7914 112.863 17.5668 111.983 17.0589C111.172 16.6194 110.439 16.0335 109.784 15.301C109.042 14.5685 108.534 13.6896 108.094 12.8106C107.723 11.8535 107.508 10.9746 107.508 10.0272C107.508 8.92364 107.801 7.97632 108.534 7.31221C109.188 6.57975 110.078 6.21839 111.104 6.21839C112.345 6.21839 113.517 6.65787 114.69 7.53683C115.13 7.89819 115.648 8.04468 116.156 8.04468C116.742 8.04468 117.26 7.75169 117.915 7.16572L120.26 4.82182C120.407 4.67532 120.485 4.52884 120.407 4.38234C120.407 4.30421 120.26 4.15772 120.113 4.01122C118.872 2.83927 117.475 1.89195 115.941 1.22784C114.397 0.573505 112.784 0.280518 111.104 0.280518H101.713C101.42 0.280518 101.205 0.495369 101.205 0.866486V10.2421C101.205 12.0781 101.566 13.7579 102.299 15.3694C103.032 16.9808 103.99 18.4457 105.231 19.6958C106.482 20.8677 107.947 21.8932 109.56 22.6257C111.104 23.3581 112.784 23.7195 114.475 23.7195C115.863 23.7195 117.113 23.5046 118.286 22.987C119.459 22.5475 120.485 21.8932 121.364 21.0826C122.244 20.2818 122.898 19.2563 123.416 18.0844C123.925 16.9808 124.218 15.6623 124.296 14.3439C124.364 13.9044 124.149 13.6896 123.778 13.6896Z" fill="#007BBC"/>
</svg>
