<svg width="197" height="32" viewBox="0 0 197 32" fill="none" xmlns="http://www.w3.org/2000/svg">
<g clip-path="url(#clip0)">
<path d="M20.3304 14.3355L20.251 14.5406C21.5741 15.1228 24.5445 17.4317 24.5445 22.0825C24.5445 26.4621 20.853 30.8747 15.0511 30.8747C7.83335 30.8747 5.34586 26.6539 5.34586 22.7771C5.34586 17.8088 8.81909 14.5009 8.81909 9.97581C8.80017 8.37539 8.23893 6.82872 7.22712 5.58858C6.2153 4.34844 4.81275 3.4882 3.24869 3.14844L3.12961 3.35352C3.69681 3.90389 4.14686 4.56327 4.45268 5.29202C4.75851 6.02078 4.9138 6.80386 4.90922 7.59417C4.90922 12.4832 0.787659 15.9564 0.787659 21.5665C0.787659 26.7333 4.39982 31.9994 14.8592 31.9994C24.1807 31.9994 29.0961 27.4346 29.0961 22.5787C29.0895 18.4108 26.1058 14.8846 20.3304 14.3355Z" fill="url(#paint0_linear)"/>
<path d="M61.2814 31.1658L48.8902 15.189V29.5913L51.4174 30.1933V30.8549H45.6551V30.1933L47.7192 29.5913V13.8989C47.2168 13.4306 46.612 13.0863 45.9528 12.8933C45.7014 12.8404 45.364 12.7809 45.364 12.7809V12.1193H50.253L60.8381 25.8799V13.3961L58.3109 12.7875V12.1259H64.0732V12.7875L62.0091 13.3961V27.6794C62.0091 29.0025 62.1017 30.9277 62.1215 31.1724L61.2814 31.1658ZM87.1883 20.9909C87.1883 27.6066 82.5574 31.4437 77.4964 31.4437C72.4354 31.4437 67.7846 27.5537 67.7846 21.5069C67.7846 15.4602 72.4155 11.5305 77.4501 11.5305C78.7173 11.4887 79.98 11.7029 81.1626 12.1604C82.3452 12.6179 83.4233 13.3093 84.3324 14.1931C85.2416 15.0769 85.9631 16.1351 86.4538 17.3043C86.9445 18.4734 87.1944 19.7296 87.1883 20.9975V20.9909ZM83.9665 21.9833C83.9665 17.1208 81.0556 12.4038 77.0994 12.4038C72.8919 12.4038 70.9932 16.4724 70.9932 20.8255C70.9932 25.1786 73.3946 30.577 77.9132 30.577C82.1604 30.577 83.9665 26.2768 83.9665 21.9833ZM91.1908 13.3829L89.2061 12.7743V12.1127H96.8075V12.7743L94.4259 13.3829L99.6721 27.686L104.918 13.3829L102.537 12.7743V12.1127H108.16V12.7743L106.175 13.3829L99.6059 31.2121H97.9256L91.1908 13.3829ZM136.111 21.2886H134.907V13.0984C138.877 13.0984 141.238 14.0114 141.238 17.2531C141.219 19.6612 139.154 21.2886 136.111 21.2886ZM170.122 30.1933L172.769 29.5913V13.3895L170.122 12.7809V12.1193H178.372V12.7809L175.726 13.3895V29.5913L178.372 30.1933V30.8549H170.122V30.1933ZM183.426 25.7079H183.949L185.702 29.7435C186.745 30.267 187.89 30.5517 189.056 30.577C191.332 30.577 193.41 29.2539 193.41 26.8855C193.41 25.086 192.245 24.0143 190.36 23.0285L188.494 22.0627C186.265 20.9049 184.035 19.2642 184.035 16.6246C184.035 13.7534 186.02 11.5371 190.267 11.5371C191.76 11.5523 193.241 11.7955 194.66 12.2582L195.103 16.5981H194.541L192.92 13.1183C192.081 12.6497 191.136 12.4037 190.174 12.4038C188.024 12.4038 186.562 13.7269 186.562 15.5595C186.562 17.22 187.667 18.2653 189.559 19.2444L191.769 20.3955C194.786 21.9568 196.215 23.4056 196.215 26.085C196.215 29.3928 193.112 31.4503 189.255 31.4503C187.439 31.4779 185.631 31.2075 183.903 30.6498L183.426 25.7079ZM106.949 30.1933L109.073 29.5913L115.629 12.1061L117.819 11.5437L124.587 29.5847L126.71 30.1933V30.8549H118.679V30.1933L121.398 29.5847L119.479 24.398H112.268L110.363 29.5847L113.082 30.1867V30.8483H106.949V30.1933ZM112.771 23.0153H119.01L115.914 14.6531L112.771 23.0153ZM139.895 21.6922C140.557 21.5268 144.268 20.5807 144.268 17.0612C144.268 14.2363 142.105 12.0465 136.773 12.0465C133.465 12.0465 130.157 12.1193 129.74 12.1325V12.7941L131.917 13.4027V29.5847L129.74 30.1933V30.8549H137.441V30.1933L134.914 29.5847V22.2677H137.09L142.654 30.8681H147.583V30.2066L145.089 29.545L139.895 21.6922ZM156.157 13.0918V29.5913L153.51 30.1933V30.8549H161.76V30.1933L159.114 29.5913V13.0984H163.566L165.035 16.2607H165.604L165.18 12.1392H150.09L149.667 16.2607H150.236L151.691 13.1315L156.157 13.0918ZM14.9849 25L17.6311 -0.000610352H12.1401L14.7864 25H14.9849Z" fill="#0460A9"/>
</g>
<defs>
<linearGradient id="paint0_linear" x1="0.781043" y1="17.5706" x2="29.0895" y2="17.5706" gradientUnits="userSpaceOnUse">
<stop offset="0.3" stop-color="#E74A21"/>
<stop offset="0.7" stop-color="#EC9A1E"/>
</linearGradient>
<clipPath id="clip0">
<rect width="195.427" height="32" fill="white" transform="translate(0.788086)"/>
</clipPath>
</defs>
</svg>
