<svg width="78" height="40" viewBox="0 0 78 40" fill="none" xmlns="http://www.w3.org/2000/svg">
<path d="M52.9577 15.351C52.4762 14.9982 51.7113 14.7725 50.9749 14.7866C50.1676 14.8007 49.4028 15.0547 48.8646 15.478V10.4268H46.3578V26.9065H48.8646V18.2998C48.8646 17.7072 49.3745 17.0441 50.3092 17.0018C50.7199 16.9877 51.3006 17.1711 51.5981 17.6085C51.9096 18.06 51.8955 18.6808 51.8955 19.3439L51.8813 26.9065H54.3881V19.2593C54.3881 17.0018 54.1049 16.1975 52.9577 15.351Z" fill="#0078C1"/>
<path d="M32.5631 21.0088C32.5631 22.6173 32.5064 23.0687 32.4923 23.2098C32.4073 24.1128 32.0249 25.0582 30.9768 25.0582C29.9429 25.0582 29.5181 24.0423 29.4756 23.1675C29.4614 23.1675 29.4048 22.6173 29.4048 21.0088C29.4048 19.4003 29.4614 18.7231 29.4756 18.7231C29.4756 17.806 29.9571 16.903 30.9768 16.903C32.0107 16.903 32.4781 17.806 32.4923 18.709C32.4923 18.7231 32.5631 19.4003 32.5631 21.0088ZM34.985 19.0617C34.6309 15.5485 32.6197 14.7866 30.9768 14.7866C28.64 14.7866 27.2237 16.268 26.9687 19.0617C26.9404 19.2874 26.9121 19.6966 26.8979 21.0088C26.8838 21.9682 26.9546 22.7583 26.9687 22.9559C27.1245 25.5661 28.6258 27.1605 30.9768 27.1605C33.3279 27.1605 34.8292 25.5379 34.9991 22.9559C35.0133 22.7725 35.0558 21.9682 35.0558 21.0088C35.0558 20.5714 35.0274 19.4003 34.985 19.0617Z" fill="#0078C1"/>
<path d="M58.5804 19.5273C58.5945 18.977 58.5945 18.8642 58.6087 18.709C58.6795 17.7213 59.1186 16.903 60.1383 16.903C61.3421 16.8889 61.6254 18.0599 61.6679 18.709C61.6962 19.0617 61.7104 19.2874 61.7104 19.5273H58.5804ZM61.682 22.8289C61.682 22.8289 61.682 23.0123 61.6537 23.2381C61.5829 23.8165 61.3563 25.0582 60.1383 25.0582C59.0902 25.0582 58.6937 24.1128 58.6229 23.1816C58.6087 22.9135 58.5662 22.6173 58.5662 21.6014H64.1606C64.1606 21.6014 64.1606 20.7689 64.1464 20.2751C64.1464 20.0776 64.1322 19.7531 64.0897 19.0617C64.0048 18.0035 63.6082 16.8465 62.9992 16.1128C62.3052 15.2381 61.3138 14.7866 60.1383 14.7866C57.8722 14.7866 56.4559 16.2539 56.1869 19.0617C56.1585 19.3157 56.116 19.6684 56.116 21.0088C56.116 21.9682 56.1727 22.7725 56.1869 22.9559C56.3285 25.5238 57.8581 27.1605 60.1383 27.1605C62.4044 27.1605 63.9198 25.5661 64.0897 22.8289H61.682Z" fill="#0078C1"/>
<path d="M18.9667 2.01764H59.7276L75.3068 20.1905L59.7276 38.1093H18.9667L3.31668 20.134L18.9667 2.01764ZM60.7048 0H17.9753L0.639893 20.0635L17.9895 40H60.7048L77.9836 20.134L60.7048 0Z" fill="#0078C1"/>
<path d="M19.4766 12.6702H20.6521C21.9409 12.6702 22.6491 13.3475 22.6774 14.5609C22.6774 14.6597 22.6916 14.7584 22.6916 14.9418C22.6916 15.1676 22.6916 15.2381 22.6774 15.3369C22.6066 16.0565 22.2808 17.3122 20.7796 17.3122H19.4766V12.6702ZM25.4108 25.8766L25.1559 21.8413C25.0426 20.0353 24.5752 18.963 23.6263 18.4127C24.3061 18.0036 25.1842 17.0018 25.1701 14.8995C25.1701 11.7108 23.1731 10.582 20.822 10.5538H16.9981V26.9066H19.4624L19.4766 19.4286H20.8504C21.6435 19.4286 22.5358 20.12 22.6774 22.067L22.9323 25.8907C22.9607 26.4409 23.0598 26.9066 23.0598 26.9066H25.5383C25.5383 26.9066 25.425 26.4551 25.4108 25.8766Z" fill="#0078C1"/>
<path d="M42.3072 22.716C42.3072 22.8994 42.293 23.0546 42.2788 23.1675C42.208 24.0846 41.8965 25.0582 40.7634 25.0582C39.7295 25.0582 39.3188 24 39.2338 23.224C39.1913 22.7583 39.2055 22.3915 39.1913 21.0088C39.1772 19.4003 39.2338 18.977 39.2621 18.7231C39.3471 17.6931 39.7437 16.903 40.7634 16.903C41.8256 16.8889 42.2647 17.806 42.2788 18.709C42.2788 18.7231 42.3072 18.9347 42.3213 19.4144H44.7998C44.7998 19.2451 44.7857 19.104 44.7857 19.0335C44.5024 15.619 42.4063 14.7866 40.7634 14.7866C38.4265 14.7866 37.0102 16.268 36.7553 19.0617C36.727 19.2874 36.6987 19.6966 36.6845 21.0088C36.6703 21.9682 36.7411 22.7583 36.7553 22.9559C36.9111 25.5661 38.4124 27.1605 40.7634 27.1605C43.1994 27.1746 44.5449 25.6931 44.7857 22.9559C44.7857 22.8571 44.7998 22.7866 44.7998 22.716H42.3072Z" fill="#0078C1"/>
</svg>
