<svg width="62" height="48" viewBox="0 0 62 48" fill="none" xmlns="http://www.w3.org/2000/svg">
<path d="M44.2137 10.6206C43.5504 9.73402 42.8458 9.03378 42.1683 8.58771C41.6251 8.2301 41.0689 7.98373 40.4721 7.83639C39.9699 7.71243 39.6773 7.6798 39.0677 7.6798C37.9789 7.6798 37.0711 7.85942 35.0493 8.47491C33.1685 9.04747 32.4893 9.22102 31.5509 9.36887C30.9403 9.46506 29.7387 9.46507 29.2089 9.36889C28.3571 9.21423 27.6638 8.91306 27.042 8.42756C26.0507 7.65344 25.4806 6.40498 25.5427 5.14384C25.6389 3.18978 27.0576 1.65197 29.2593 1.11536C30.3304 0.854313 31.3393 0.831742 32.7711 1.0368C34.6858 1.311 36.4554 1.93697 38.1172 2.92795C40.6876 4.46067 42.7671 6.82549 43.9524 9.5639C44.2359 10.2187 44.4649 10.8574 44.4162 10.8574C44.4023 10.8574 44.3111 10.7508 44.2137 10.6206Z" fill="#C9AD79"/>
<path d="M22.8052 25.7407C22.5268 25.7109 22.0194 25.6013 21.7494 25.5126C20.4122 25.0733 19.2619 24.073 18.2622 22.4797C17.9542 21.9888 17.52 21.1398 17.3224 20.642C16.8514 19.455 16.5108 18.0806 16.3684 16.7922C16.2959 16.1365 16.3214 13.6604 16.4007 13.6604C16.4125 13.6604 16.5514 13.822 16.7094 14.0194C17.0898 14.4951 18.0732 15.4726 18.5124 15.8115C19.7734 16.7847 20.7369 17.2654 22.9886 18.0444C24.4895 18.5637 25.2127 18.8816 25.6651 19.2208C25.9509 19.4351 26.392 19.9071 26.5633 20.1819C26.7416 20.468 26.9205 20.8766 27.0076 21.1967C27.1006 21.5383 27.126 22.3936 27.0545 22.7738C26.9563 23.2963 26.7331 23.8125 26.4234 24.2337C26.2301 24.4966 25.7466 24.9623 25.5037 25.1195C25.0969 25.3827 24.5874 25.5831 24.071 25.6829C23.8193 25.7315 23.0483 25.7667 22.8052 25.7407Z" fill="#BBBB1B"/>
<path d="M4.70328 47.0375C4.24263 46.968 3.80564 46.8339 3.43529 46.6486C2.81343 46.3374 2.24382 45.7907 1.91467 45.1891C1.68201 44.7638 1.49429 44.0358 1.52272 43.669C1.52501 43.6395 1.70334 43.6308 2.30422 43.6308H3.08276L3.09765 43.6996C3.28211 44.5515 3.57387 45.0237 4.12118 45.3562C4.43543 45.5471 4.72652 45.6242 5.19366 45.6404C5.54545 45.6527 5.64646 45.6451 5.86584 45.5903C6.28376 45.4859 6.60454 45.3104 6.87362 45.0392C7.25002 44.6598 7.39201 44.315 7.39201 43.7804C7.39201 43.275 7.22545 42.8985 6.85498 42.5662C6.58751 42.3264 6.24919 42.1783 5.03937 41.7712C4.44281 41.5704 3.82409 41.3487 3.66445 41.2785C2.56405 40.7946 1.95344 39.8968 1.95344 38.7628C1.95344 37.3521 2.7758 36.1978 4.10748 35.7393C5.02959 35.4217 5.91779 35.4453 6.79556 35.8107C7.63939 36.162 8.42271 37.0129 8.6604 37.8365C8.7298 38.0769 8.79588 38.4664 8.77604 38.5181C8.76294 38.5523 8.61712 38.5584 7.97894 38.5518L7.19787 38.5436L7.14421 38.3253C7.06034 37.984 6.92511 37.7488 6.6622 37.487C6.26147 37.088 5.79688 36.9141 5.22537 36.9492C4.42215 36.9984 3.80149 37.4413 3.5983 38.1103C3.54597 38.2826 3.53701 38.3738 3.54931 38.6089C3.56981 39.0008 3.69615 39.2649 3.99351 39.5375C4.26808 39.7891 4.55267 39.9214 5.60461 40.2862C7.50442 40.9452 7.93823 41.1728 8.39884 41.7524C8.80832 42.2677 9.01762 42.8767 9.01818 43.5544C9.019 44.5359 8.63054 45.4466 7.93737 46.0884C7.11685 46.848 5.87071 47.2138 4.70328 47.0375ZM30.0913 46.9805C29.8903 46.9263 29.6855 46.7972 29.5638 46.6478C29.4247 46.4771 28.0859 44.2815 25.2792 39.621C24.877 38.9532 24.5308 38.4066 24.5098 38.4065C24.4794 38.4061 24.4716 39.2751 24.4716 42.6498C24.4716 46.4914 24.467 46.8953 24.4232 46.9121C24.3967 46.9223 24.0419 46.9306 23.635 46.9306C23.1002 46.9306 22.8848 46.9205 22.8583 46.894C22.8112 46.8469 22.8051 36.8444 22.852 36.5576C22.9151 36.1719 23.1545 35.8424 23.4843 35.6874C23.916 35.4844 24.4451 35.5659 24.761 35.8838C24.908 36.0317 25.8301 37.5366 29.1941 43.1188C29.5459 43.7025 29.851 44.1803 29.872 44.1805C29.9023 44.1808 29.9102 43.3155 29.9102 39.9552C29.9102 36.7094 29.9187 35.7211 29.9468 35.6929C29.9733 35.6664 30.1912 35.6563 30.7351 35.6563C31.279 35.6563 31.4969 35.6664 31.5234 35.6929C31.5714 35.741 31.577 45.8243 31.5291 46.0786C31.4025 46.7512 30.7527 47.1588 30.0913 46.9805ZM39.4429 47.0009C37.2579 46.7645 35.3961 45.3268 34.6342 43.2873C33.7994 41.053 34.4838 38.4429 36.3037 36.9205C37.6595 35.7864 39.4236 35.3405 41.1692 35.6908C43.4953 36.1576 45.2594 37.9918 45.6471 40.3463C46.0205 42.614 45.067 44.8083 43.1552 46.0808C42.4377 46.5584 41.5565 46.8764 40.6353 46.9903C40.3924 47.0203 39.6808 47.0267 39.4429 47.0009ZM40.879 45.4073C41.2513 45.321 41.401 45.2671 41.7859 45.0807C43.0759 44.456 43.9347 43.1762 44.0546 41.6999C44.1605 40.3965 43.7277 39.1531 42.865 38.2821C42.3044 37.7162 41.558 37.3247 40.7344 37.1647C40.3998 37.0996 39.6164 37.0917 39.2902 37.1501C38.7496 37.2469 38.1599 37.494 37.7166 37.8096C35.8588 39.1322 35.3769 41.7859 36.6478 43.695C37.3023 44.6781 38.2873 45.2889 39.5193 45.4756C39.7481 45.5102 40.625 45.4662 40.879 45.4073ZM10.4009 46.8991C10.382 46.8684 14.3284 36.4165 14.4598 36.1493C14.652 35.7585 15.1907 35.5051 15.6347 35.5967C15.936 35.6589 16.1657 35.8001 16.3278 36.0229C16.4482 36.1884 20.4872 46.8086 20.4584 46.8838C20.4429 46.9242 20.3322 46.9306 19.6527 46.9302C19.2194 46.9299 18.8464 46.9179 18.8238 46.9036C18.8011 46.8892 18.526 46.1779 18.2124 45.3229L17.6422 43.7683L15.4542 43.7605C13.7268 43.7543 13.2596 43.7608 13.2352 43.791C13.2182 43.8121 12.9548 44.5091 12.6499 45.3398C12.345 46.1705 12.0805 46.8683 12.0621 46.8904C12.0196 46.9416 10.4323 46.9499 10.4009 46.8991ZM17.0776 42.2566C17.0776 42.2029 15.4867 37.8725 15.4555 37.8412C15.4353 37.8211 15.4162 37.8252 15.3987 37.8535C15.3309 37.9633 13.8056 42.2048 13.8203 42.243C13.8344 42.2798 14.0844 42.2865 15.4573 42.2865C16.4908 42.2865 17.0776 42.2757 17.0776 42.2566ZM48.5246 46.9052C48.4937 46.8855 48.4876 45.8468 48.4941 41.6879L48.5021 36.4952L48.6026 36.2912C48.7713 35.9485 49.0595 35.7448 49.4568 35.6873C49.7761 35.6412 54.8199 35.6464 54.8665 35.6929C54.9185 35.745 54.9185 37.0953 54.8665 37.1473C54.8386 37.1752 54.2676 37.184 52.4833 37.184H50.1368V39.0019V40.8199H52.4833C54.2676 40.8199 54.8386 40.8287 54.8665 40.8565C54.9185 40.9086 54.9185 42.2589 54.8665 42.3109C54.8386 42.3388 54.2676 42.3476 52.4833 42.3476H50.1368V44.6024C50.1368 46.3155 50.128 46.8661 50.1001 46.894C50.0577 46.9364 48.5902 46.9468 48.5246 46.9052ZM57.9035 46.894C57.8502 46.8406 57.8502 35.7463 57.9035 35.6929C57.93 35.6664 58.1454 35.6563 58.6802 35.6563C59.0871 35.6563 59.4419 35.6646 59.4684 35.6748C59.5123 35.6917 59.5168 36.2151 59.5168 41.2935C59.5168 46.3718 59.5123 46.8953 59.4684 46.9121C59.4419 46.9223 59.0871 46.9306 58.6802 46.9306C58.1454 46.9306 57.93 46.9205 57.9035 46.894ZM29.9254 29.7409C28.5276 29.6341 27.4385 29.4305 26.3221 29.0671C24.9988 28.6364 23.9445 28.1318 22.8088 27.3856C22.389 27.1097 21.7554 26.6441 21.6867 26.5609C21.6363 26.4999 21.6571 26.5038 22.1081 26.6406C23.5031 27.0638 25.4399 27.1172 27.11 26.7786C28.8179 26.4323 30.1767 25.7084 31.377 24.5055C32.0682 23.8127 32.6234 23.0657 33.2144 22.0335C33.7046 21.1772 34.0526 20.4389 35.2181 17.7823C36.6898 14.4277 37.8967 12.8651 39.7026 11.9761C40.7566 11.4572 41.8357 11.2483 43.2622 11.287C43.9417 11.3055 44.5484 11.3588 44.5938 11.4042C44.6328 11.4432 44.8482 12.3744 44.9259 12.8398C45.2707 14.9065 45.2008 16.842 44.7093 18.8339C43.856 22.292 41.6992 25.3537 38.7249 27.3293C38.0912 27.7502 37.6909 27.9812 37.0482 28.2966C35.5592 29.0275 33.9392 29.4908 32.1983 29.6838C31.7832 29.7298 30.2758 29.7677 29.9254 29.7409Z" fill="#515BA2"/>
</svg>
