<svg width="28" height="28" viewBox="0 0 28 28" fill="none" xmlns="http://www.w3.org/2000/svg">
<path d="M18.9583 26.25C20.0859 26.25 21 25.3359 21 24.2083C21 23.0807 20.0859 22.1666 18.9583 22.1666C17.8307 22.1666 16.9167 23.0807 16.9167 24.2083C16.9167 25.3359 17.8307 26.25 18.9583 26.25Z" fill="#FFAB00"/>
<path d="M9.62501 26.25C10.7526 26.25 11.6667 25.3359 11.6667 24.2083C11.6667 23.0807 10.7526 22.1666 9.62501 22.1666C8.49743 22.1666 7.58334 23.0807 7.58334 24.2083C7.58334 25.3359 8.49743 26.25 9.62501 26.25Z" fill="#FFAB00"/>
<path d="M5.64668 4.59671L5.41334 7.45504C5.36668 8.00338 5.79834 8.45837 6.34668 8.45837H24.2083C24.6983 8.45837 25.1067 8.08504 25.1417 7.59504C25.2933 5.53004 23.7183 3.85004 21.6533 3.85004H7.31501C7.19834 3.33671 6.96501 2.84671 6.60334 2.43837C6.02001 1.82004 5.20334 1.45837 4.36334 1.45837H2.33334C1.85501 1.45837 1.45834 1.85504 1.45834 2.33337C1.45834 2.81171 1.85501 3.20837 2.33334 3.20837H4.36334C4.72501 3.20837 5.06334 3.36004 5.30834 3.61671C5.55334 3.88504 5.67001 4.23504 5.64668 4.59671Z" fill="#FFAB00"/>
<path d="M23.9283 10.2084H6.03166C5.54166 10.2084 5.14499 10.5817 5.09832 11.06L4.67832 16.135C4.51499 18.13 6.07832 19.8334 8.07332 19.8334H21.0467C22.7967 19.8334 24.3367 18.3984 24.465 16.6484L24.85 11.2C24.8967 10.6634 24.4767 10.2084 23.9283 10.2084Z" fill="#FFAB00"/>
</svg>
