<svg width="28" height="28" viewBox="0 0 28 28" fill="none" xmlns="http://www.w3.org/2000/svg">
<path d="M25.6667 24.7916H2.33334C1.85501 24.7916 1.45834 25.1883 1.45834 25.6666C1.45834 26.145 1.85501 26.5416 2.33334 26.5416H25.6667C26.145 26.5416 26.5417 26.145 26.5417 25.6666C26.5417 25.1883 26.145 24.7916 25.6667 24.7916Z" fill="#38CB89"/>
<path d="M19.8333 2.33337H8.16667C4.66667 2.33337 3.5 4.42171 3.5 7.00004V25.6667H10.5V18.5967C10.5 17.99 10.99 17.5 11.5967 17.5H16.415C17.01 17.5 17.5117 17.99 17.5117 18.5967V25.6667H24.5117V7.00004C24.5 4.42171 23.3333 2.33337 19.8333 2.33337ZM16.9167 10.7917H14.875V12.8334C14.875 13.3117 14.4783 13.7084 14 13.7084C13.5217 13.7084 13.125 13.3117 13.125 12.8334V10.7917H11.0833C10.605 10.7917 10.2083 10.395 10.2083 9.91671C10.2083 9.43837 10.605 9.04171 11.0833 9.04171H13.125V7.00004C13.125 6.52171 13.5217 6.12504 14 6.12504C14.4783 6.12504 14.875 6.52171 14.875 7.00004V9.04171H16.9167C17.395 9.04171 17.7917 9.43837 17.7917 9.91671C17.7917 10.395 17.395 10.7917 16.9167 10.7917Z" fill="#38CB89"/>
</svg>
