<svg width="88" height="73" viewBox="0 0 88 73" fill="none" xmlns="http://www.w3.org/2000/svg">
<path d="M34.0391 14.116H25.15C23.2536 14.116 21.7161 15.6535 21.7161 17.5503V26.5154C21.7161 28.4118 23.2536 29.9497 25.15 29.9497H33.9741C36.185 23.5892 35.2757 17.9013 34.0391 14.116Z" fill="white"/>
<path d="M62.3475 14.1153H58.6826C46.5796 19.5443 42.8324 25.6326 39.2016 31.538C38.1546 33.2403 37.0898 34.9661 35.8327 36.6693V40.631C35.8327 42.5274 37.369 44.0645 39.2658 44.0645H48.2309C50.1277 44.0645 51.6648 42.5274 51.6648 40.631V29.9491H62.3475C64.2439 29.9491 65.7814 28.4112 65.7814 26.5148V17.5496C65.7814 15.6528 64.2439 14.1153 62.3475 14.1153Z" fill="white"/>
<path d="M33.1869 8.4446C33.1869 8.4446 44.6725 25.6732 27.4435 42.6621C41.0832 33.3302 36.2972 20.8876 61.9011 11.0768C46.5865 12.9909 39.4076 12.0335 33.1869 8.4446Z" fill="white"/>
<path d="M45.0544 8.79485C43.0458 8.79485 41.4178 7.16691 41.4178 5.15789C41.4178 3.14969 43.0458 1.52134 45.0544 1.52134C47.063 1.52134 48.6909 3.14969 48.6909 5.15789C48.6909 7.16691 47.063 8.79485 45.0544 8.79485ZM48.2309 0.000290871H39.2658C37.369 0.000290871 35.8327 1.53778 35.8327 3.43416V8.04501C39.4536 9.73132 43.4865 10.4692 48.8809 10.4692C49.7631 10.4692 50.6901 10.4491 51.6648 10.4088V3.43416C51.6648 1.53778 50.1277 0.000290871 48.2309 0.000290871Z" fill="white"/>
<path d="M13.9797 60.9212L8.74687 67.8979H8.14708L3.02977 60.8977V72.5811H0V56.5138H3.48978L8.51336 63.4214L13.5431 56.5138H17.0078V72.5811H13.9797V60.9212Z" fill="white"/>
<path d="M30.3417 72.5581H18.3139C18.3139 67.2077 18.3139 61.8376 18.3139 56.4909H30.3417V59.4277H21.321V63.1243H30.021V65.9473H21.321V69.574H30.3417V72.5581Z" fill="white"/>
<path d="M34.3972 69.6439H37.7007C41.3504 69.6439 42.7938 66.9808 42.7268 64.3637C42.6581 61.8635 41.1909 59.3607 37.7007 59.3607H34.3972V69.6439ZM45.7315 64.3847C45.8042 68.45 43.3245 72.5581 37.7007 72.5581C35.7266 72.5581 33.3628 72.5581 31.3904 72.5581V56.4909C33.3628 56.4909 35.7266 56.4909 37.7007 56.4909C43.2102 56.4909 45.6645 60.4148 45.7315 64.3847Z" fill="white"/>
<path d="M55.8933 60.3707C55.3453 59.4531 53.8292 58.5804 52.0866 58.5804C49.8342 58.5804 48.7592 59.521 48.7592 60.7164C48.7592 62.1142 50.4101 62.5043 52.339 62.737C55.6865 63.1472 58.8109 64.0208 58.8109 67.8539C58.8109 71.4349 55.6426 72.9712 52.0627 72.9712C48.7797 72.9712 46.256 71.9615 45.0622 69.0243L47.5859 67.7141C48.2988 69.4835 50.1565 70.2617 52.1088 70.2617C54.0126 70.2617 55.8037 69.5977 55.8037 67.8539C55.8037 66.3378 54.2198 65.7178 52.0866 65.4901C48.8032 65.0979 45.7734 64.2247 45.7734 60.6244C45.7734 57.3179 49.0326 55.9642 51.9933 55.9403C54.4935 55.9403 57.0867 56.6532 58.3069 59.1337L55.8933 60.3707Z" fill="white"/>
<path d="M66.7475 59.8639L63.767 66.7041H69.7333L66.7475 59.8639ZM70.948 69.5275H62.5498L61.1738 72.5581H57.89L65.0953 56.4909H68.4009L75.6074 72.5581H72.3034L70.948 69.5275Z" fill="white"/>
<path d="M75.9539 72.5581V56.5135H87.4975V59.4277H78.9817V63.8129H87.0379V66.6108H78.9817V72.5581H75.9539Z" fill="white"/>
</svg>
