<svg width="173" height="180" viewBox="0 0 173 180" fill="none" xmlns="http://www.w3.org/2000/svg">
<g opacity="0.2">
<path d="M12.7906 100.195L-18.4298 114.37C-25.0903 117.394 -28.0386 125.246 -25.0139 131.908L-10.7177 163.395C-7.69368 170.056 0.158735 173.005 6.81922 169.981L37.8115 155.91C35.4339 130.045 23.1699 111.518 12.7906 100.195Z" fill="white"/>
<path d="M112.215 55.0535L99.3435 60.8977C65.4922 99.2652 62.0402 126.624 58.705 153.155C57.7422 160.803 56.7546 168.562 55.0552 176.549L61.3727 190.463C64.3967 197.124 72.2435 200.073 78.9054 197.048L110.393 182.752C117.055 179.727 120.002 171.877 116.978 165.217L99.9446 127.7L137.464 110.665C144.125 107.641 147.073 99.7876 144.049 93.1272L129.752 61.6397C126.728 54.9777 118.876 52.0295 112.215 55.0535Z" fill="white"/>
<path d="M0.75497 81.6375C0.75497 81.6375 68.568 123.833 35.1474 210.975C68.172 156.449 31.5212 120.38 105.803 45.0938C55.067 76.2375 28.3263 84.3226 0.75497 81.6375Z" fill="white"/>
<path d="M42.993 63.9398C35.9383 67.1428 27.6247 64.0212 24.421 56.9651C21.2187 49.9118 24.3397 41.5968 31.3944 38.3938C38.449 35.1908 46.7633 38.3139 49.9657 45.3671C53.1693 52.4232 50.0476 60.7368 42.993 63.9398ZM40.1255 27.9861L8.63798 42.2823C1.97605 45.307 -0.967888 53.1568 2.05615 59.8172L9.40878 76.0115C24.8153 76.1601 40.1562 72.3209 59.1024 63.7188C62.2009 62.312 65.4247 60.763 68.7838 59.0672L57.6618 34.5708C54.6377 27.9103 46.7874 24.9614 40.1255 27.9861Z" fill="white"/>
</g>
</svg>
