<svg width="28" height="28" viewBox="0 0 28 28" fill="none" xmlns="http://www.w3.org/2000/svg">
<path d="M20.4517 9.06504C20.37 9.05337 20.2883 9.05337 20.2067 9.06504C18.3983 9.00671 16.9633 7.52504 16.9633 5.70504C16.9633 3.85004 18.4683 2.33337 20.335 2.33337C22.19 2.33337 23.7067 3.83837 23.7067 5.70504C23.695 7.52504 22.26 9.00671 20.4517 9.06504Z" fill="#FF5630"/>
<path d="M24.255 17.15C22.9483 18.025 21.1167 18.3516 19.425 18.13C19.8683 17.1733 20.1017 16.1116 20.1133 14.9916C20.1133 13.825 19.8567 12.7166 19.3667 11.7483C21.0933 11.515 22.925 11.8416 24.2433 12.7166C26.0867 13.93 26.0867 15.925 24.255 17.15Z" fill="#FF5630"/>
<path d="M7.51332 9.06504C7.59499 9.05337 7.67666 9.05337 7.75832 9.06504C9.56665 9.00671 11.0017 7.52504 11.0017 5.70504C11.0017 3.83837 9.49665 2.33337 7.62999 2.33337C5.77499 2.33337 4.26999 3.83837 4.26999 5.70504C4.26999 7.52504 5.70499 9.00671 7.51332 9.06504Z" fill="#FF5630"/>
<path d="M7.64165 14.9916C7.64165 16.1233 7.88665 17.1966 8.32998 18.165C6.68498 18.34 4.96998 17.99 3.70998 17.1616C1.86665 15.9366 1.86665 13.9416 3.70998 12.7166C4.95832 11.8766 6.71998 11.5383 8.37665 11.725C7.89832 12.705 7.64165 13.8133 7.64165 14.9916Z" fill="#FF5630"/>
<path d="M14.14 18.515C14.0467 18.5033 13.9417 18.5033 13.8367 18.515C11.69 18.445 9.97501 16.6833 9.97501 14.5133C9.98667 12.2967 11.7717 10.5 14 10.5C16.2167 10.5 18.0133 12.2967 18.0133 14.5133C18.0017 16.6833 16.2983 18.445 14.14 18.515Z" fill="#FF5630"/>
<path d="M10.3483 20.93C8.58665 22.1083 8.58665 24.045 10.3483 25.2116C12.355 26.5533 15.645 26.5533 17.6517 25.2116C19.4133 24.0333 19.4133 22.0966 17.6517 20.93C15.6567 19.5883 12.3667 19.5883 10.3483 20.93Z" fill="#FF5630"/>
</svg>
