<svg width="373" height="663" viewBox="0 0 373 663" fill="none" xmlns="http://www.w3.org/2000/svg">
<path opacity="0.48" d="M54 333L53.5579 333.234L54 333ZM357 600L361.553 596.45L356.202 594.282L357 600ZM12.0001 52L8.40375 56.5166L14.1134 57.3728L12.0001 52ZM10.383 59.8304C10.0557 62.4114 9.75564 65.0629 9.48316 67.7802L10.4782 67.88C10.7498 65.171 11.0489 62.5281 11.375 59.9562L10.383 59.8304ZM9.10651 71.776C8.876 74.3842 8.66992 77.0483 8.48856 79.7642L9.48634 79.8308C9.66724 77.1218 9.87277 74.4649 10.1026 71.864L9.10651 71.776ZM8.24267 83.7433C8.09345 86.3656 7.96661 89.0327 7.86241 91.7413L8.86167 91.7798C8.96565 89.0771 9.0922 86.4161 9.24105 83.8001L8.24267 83.7433ZM7.72549 95.7554C7.64706 98.3863 7.58949 101.054 7.55301 103.754L8.55292 103.768C8.58932 101.072 8.64678 98.4105 8.72504 95.7852L7.72549 95.7554ZM7.5146 107.752C7.4994 110.393 7.50401 113.063 7.52863 115.761L8.52859 115.752C8.50401 113.059 8.49942 110.394 8.51458 107.758L7.5146 107.752ZM7.57942 119.756C7.62245 122.399 7.68442 125.067 7.76553 127.756L8.76507 127.726C8.6841 125.041 8.62224 122.378 8.57929 119.739L7.57942 119.756ZM7.90039 131.774C7.99805 134.418 8.11401 137.081 8.24844 139.761L9.24718 139.711C9.11297 137.035 8.9972 134.377 8.89971 131.738L7.90039 131.774ZM8.4616 143.753C8.61167 146.402 8.77965 149.067 8.96572 151.746L9.96332 151.676C9.77754 149.002 9.60983 146.341 9.46 143.696L8.4616 143.753ZM9.25503 155.729C9.45574 158.376 9.67404 161.036 9.91009 163.706L10.9062 163.618C10.6705 160.952 10.4526 158.297 10.2522 155.653L9.25503 155.729ZM10.2753 167.695C10.5258 170.34 10.7938 172.994 11.0792 175.654L12.0735 175.548C11.7885 172.891 11.521 170.241 11.2708 167.6L10.2753 167.695ZM11.5193 179.638C11.8196 182.281 12.1372 184.929 12.4722 187.581L13.4643 187.456C13.1298 184.808 12.8127 182.164 12.5129 179.525L11.5193 179.638ZM12.9861 191.548C13.3367 194.189 13.7046 196.832 14.0901 199.477L15.0796 199.332C14.6948 196.692 14.3274 194.053 13.9774 191.416L12.9861 191.548ZM14.6798 203.432C15.0814 206.068 15.5005 208.704 15.9372 211.337L16.9237 211.174C16.4877 208.544 16.0693 205.913 15.6683 203.282L14.6798 203.432ZM16.605 215.282C17.0591 217.912 17.531 220.539 18.0206 223.161L19.0036 222.977C18.5148 220.36 18.0438 217.738 17.5904 215.112L16.605 215.282ZM18.7686 227.09C19.2774 229.712 19.8041 232.329 20.3489 234.938L21.3278 234.733C20.784 232.129 20.2582 229.517 19.7503 226.899L18.7686 227.09ZM21.1815 238.852C21.7469 241.463 22.3307 244.066 22.9331 246.658L23.9071 246.431C23.3059 243.844 22.7232 241.247 22.1588 238.64L21.1815 238.852ZM23.8559 250.559C24.482 253.16 25.1269 255.75 25.7908 258.325L26.7592 258.075C26.0966 255.505 25.453 252.921 24.8282 250.325L23.8559 250.559ZM26.8067 262.198C27.4974 264.787 28.2076 267.36 28.9375 269.916L29.8991 269.642C29.1708 267.091 28.4621 264.523 27.773 261.94L26.8067 262.198ZM30.0517 273.752C30.8119 276.326 31.5924 278.88 32.3934 281.414L33.3469 281.112C32.5478 278.585 31.7691 276.037 31.0107 273.469L30.0517 273.752ZM33.6185 285.223C34.4524 287.772 35.3075 290.298 36.184 292.8L37.1278 292.469C36.2536 289.974 35.4007 287.454 34.5689 284.912L33.6185 285.223ZM37.5338 296.585C38.4504 299.111 39.3895 301.61 40.3512 304.079L41.283 303.717C40.3243 301.254 39.3879 298.763 38.4738 296.243L37.5338 296.585ZM41.8252 307.797C42.833 310.294 43.8646 312.759 44.9202 315.189L45.8374 314.791C44.7854 312.369 43.7571 309.912 42.7525 307.423L41.8252 307.797ZM46.5381 318.845C47.6452 321.3 48.7777 323.717 49.9357 326.093L50.8346 325.655C49.6811 323.288 48.5529 320.88 47.4497 318.434L46.5381 318.845ZM51.7267 329.696C52.3304 330.886 52.9408 332.065 53.5579 333.234L54.4421 332.766C53.8276 331.603 53.2198 330.429 52.6186 329.244L51.7267 329.696ZM53.5579 333.234C54.1954 334.44 54.8424 335.633 55.4988 336.813L56.3726 336.326C55.7198 335.153 55.0762 333.967 54.4421 332.766L53.5579 333.234ZM57.4959 340.31C58.8458 342.616 60.2323 344.867 61.654 347.067L62.4939 346.524C61.0802 344.337 59.7013 342.098 58.3589 339.805L57.4959 340.31ZM63.8528 350.387C65.3716 352.626 66.9277 354.809 68.5196 356.938L69.3205 356.339C67.7378 354.222 66.1905 352.052 64.6803 349.826L63.8528 350.387ZM70.9339 360.092C72.588 362.203 74.2782 364.259 76.0025 366.263L76.7604 365.611C75.046 363.619 73.3656 361.574 71.7209 359.475L70.9339 360.092ZM78.6534 369.272C80.438 371.252 82.2568 373.178 84.108 375.053L84.8196 374.351C82.9789 372.486 81.1705 370.571 79.3962 368.603L78.6534 369.272ZM86.9587 377.876C88.8839 379.739 90.8418 381.55 92.8305 383.311L93.4933 382.562C91.5156 380.811 89.5686 379.01 87.6542 377.157L86.9587 377.876ZM95.8363 385.914C97.8784 387.644 99.9509 389.324 102.052 390.955L102.665 390.165C100.575 388.543 98.5137 386.872 96.4827 385.151L95.8363 385.914ZM105.232 393.372C107.37 394.962 109.536 396.505 111.728 398.003L112.292 397.177C110.111 395.687 107.956 394.152 105.829 392.569L105.232 393.372ZM115.053 400.227C117.281 401.688 119.535 403.103 121.811 404.476L122.328 403.62C120.062 402.253 117.819 400.844 115.601 399.391L115.053 400.227ZM125.248 406.507C127.555 407.843 129.883 409.137 132.23 410.391L132.701 409.509C130.364 408.26 128.045 406.972 125.749 405.642L125.248 406.507ZM135.766 412.243C138.134 413.46 140.522 414.638 142.925 415.78L143.354 414.877C140.96 413.739 138.582 412.565 136.222 411.354L135.766 412.243ZM146.544 417.467C148.964 418.574 151.4 419.646 153.849 420.686L154.24 419.765C151.799 418.729 149.372 417.661 146.96 416.558L146.544 417.467ZM157.535 422.222C159.998 423.23 162.473 424.206 164.958 425.153L165.314 424.219C162.837 423.275 160.369 422.301 157.913 421.296L157.535 422.222ZM168.695 426.553C171.195 427.473 173.703 428.365 176.218 429.231L176.543 428.286C174.035 427.422 171.533 426.532 169.041 425.615L168.695 426.553ZM179.994 430.511C182.522 431.354 185.055 432.171 187.592 432.967L187.891 432.012C185.36 431.219 182.832 430.403 180.31 429.562L179.994 430.511ZM191.405 434.144C193.951 434.919 196.499 435.673 199.047 436.407L199.324 435.446C196.78 434.713 194.237 433.961 191.696 433.188L191.405 434.144ZM202.894 437.501C205.458 438.222 208.021 438.923 210.581 439.609L210.84 438.643C208.284 437.958 205.724 437.258 203.164 436.539L202.894 437.501ZM214.431 440.63C217.017 441.309 219.598 441.972 222.172 442.623L222.417 441.653C219.846 441.003 217.267 440.34 214.685 439.663L214.431 440.63ZM226.028 443.59C228.623 444.236 231.211 444.87 233.787 445.496L234.023 444.524C231.448 443.899 228.863 443.265 226.269 442.619L226.028 443.59ZM237.663 446.432C240.256 447.055 242.836 447.671 245.401 448.281L245.632 447.308C243.067 446.698 240.488 446.083 237.897 445.46L237.663 446.432ZM249.301 449.208C251.893 449.823 254.468 450.435 257.024 451.045L257.257 450.072C254.7 449.462 252.124 448.85 249.532 448.235L249.301 449.208ZM260.918 451.977C263.524 452.604 266.11 453.23 268.67 453.86L268.909 452.889C266.346 452.259 263.759 451.632 261.151 451.005L260.918 451.977ZM272.493 454.807C275.115 455.462 277.709 456.122 280.272 456.791L280.525 455.823C277.957 455.154 275.36 454.493 272.735 453.837L272.493 454.807ZM284.094 457.8C286.699 458.497 289.27 459.204 291.803 459.926L292.077 458.964C289.538 458.241 286.962 457.532 284.352 456.834L284.094 457.8ZM295.616 461.032C298.197 461.794 300.735 462.574 303.228 463.374L303.533 462.422C301.033 461.619 298.487 460.837 295.899 460.073L295.616 461.032ZM307.014 464.619C309.562 465.477 312.057 466.36 314.495 467.272L314.845 466.335C312.396 465.419 309.89 464.532 307.334 463.672L307.014 464.619ZM318.225 468.709C320.723 469.7 323.156 470.727 325.52 471.793L325.931 470.882C323.553 469.808 321.105 468.776 318.594 467.779L318.225 468.709ZM329.141 473.487C331.561 474.66 333.9 475.881 336.152 477.156L336.645 476.286C334.373 474.999 332.015 473.769 329.578 472.587L329.141 473.487ZM339.582 479.182C341.869 480.593 344.055 482.068 346.133 483.614L346.73 482.811C344.626 481.247 342.416 479.756 340.107 478.331L339.582 479.182ZM349.249 486.053C351.31 487.752 353.249 489.533 355.059 491.406L355.778 490.711C353.941 488.81 351.974 487.003 349.885 485.281L349.249 486.053ZM357.708 494.322C359.418 496.328 360.989 498.433 362.414 500.647L363.255 500.106C361.805 497.853 360.207 495.712 358.469 493.673L357.708 494.322ZM364.438 504.048C365.685 506.319 366.787 508.698 367.738 511.194L368.673 510.838C367.706 508.299 366.584 505.878 365.315 503.567L364.438 504.048ZM369.016 514.92C369.77 517.378 370.387 519.945 370.858 522.627L371.843 522.453C371.365 519.732 370.739 517.126 369.972 514.626L369.016 514.92ZM371.427 526.484C371.732 529.031 371.914 531.678 371.967 534.429L372.967 534.409C372.913 531.627 372.729 528.947 372.42 526.365L371.427 526.484ZM371.958 538.341C371.898 540.886 371.734 543.517 371.461 546.237L372.456 546.337C372.731 543.593 372.897 540.937 372.958 538.364L371.958 538.341ZM370.986 550.269C370.652 552.749 370.231 555.3 369.722 557.924L370.704 558.114C371.216 555.472 371.64 552.903 371.977 550.403L370.986 550.269ZM368.893 561.916C368.344 564.392 367.721 566.93 367.019 569.534L367.985 569.794C368.69 567.177 369.317 564.623 369.869 562.132L368.893 561.916ZM365.957 573.324C365.213 575.881 364.397 578.499 363.507 581.179L364.456 581.494C365.35 578.802 366.17 576.173 366.917 573.604L365.957 573.324ZM362.286 584.762C361.445 587.17 360.547 589.628 359.589 592.135L360.523 592.492C361.484 589.976 362.386 587.509 363.23 585.092L362.286 584.762Z" fill="#33869D"/>
<path d="M24 48C37.2548 48 48 37.2548 48 24C48 10.7452 37.2548 0 24 0C10.7452 0 0 10.7452 0 24C0 37.2548 10.7452 48 24 48Z" fill="#08475E"/>
<path d="M47.9321 25.8129C43.3587 21.2395 28.4988 6.3797 28.4988 6.3797L6.37964 28.4989L25.8129 47.9321C37.6223 47.05 47.0501 37.6224 47.9321 25.8129Z" fill="#05303D"/>
<path d="M22.2425 22.1762L12.6552 12.5889L12.6846 12.2648L18.5696 6.3797C21.3116 3.6378 25.757 3.6378 28.4989 6.3797C31.2408 9.12161 31.2408 13.567 28.4989 16.309L22.6138 22.194L22.2425 22.1762Z" fill="white"/>
<path d="M28.4985 16.3088L22.6138 22.1935L22.2426 22.1763L17.4723 17.406L28.4985 6.37976C29.8694 7.75067 30.5548 9.5471 30.5548 11.3436C30.5549 13.1415 29.8694 14.9379 28.4985 16.3088Z" fill="#D1FEFB"/>
<path d="M6.37967 28.4989C3.63777 25.757 3.63777 21.3116 6.37967 18.5696L12.6845 12.2648L22.6138 22.194L16.3089 28.4989C13.567 31.2408 9.12158 31.2408 6.37967 28.4989Z" fill="#45F6FF"/>
<path d="M22.6138 22.1935L16.3088 28.4985C13.567 31.2403 9.12157 31.2403 6.37976 28.4985L17.6493 17.229L22.6138 22.1935Z" fill="#5ECBF1"/>
<path d="M25.7575 25.8238L35.3449 35.4112L35.3155 35.7353L29.4304 41.6203C26.6885 44.3622 22.243 44.3622 19.5011 41.6203C16.7592 38.8784 16.7592 34.433 19.5011 31.6911L25.3862 25.806L25.7575 25.8238Z" fill="white"/>
<path d="M35.3152 35.7355L29.4305 41.6202C26.6887 44.362 22.2433 44.362 19.5015 41.6202L30.5277 30.594L35.345 35.4113L35.3152 35.7355Z" fill="#D1FEFB"/>
<path d="M41.6204 19.5011C44.3623 22.243 44.3623 26.6885 41.6204 29.4304L35.3155 35.7353L25.3862 25.806L31.6911 19.5011C34.433 16.7592 38.8785 16.7592 41.6204 19.5011Z" fill="#FF405C"/>
<path d="M41.6202 29.4306L35.3152 35.7355L30.3507 30.771L41.6202 19.5015C44.362 22.2433 44.362 26.6888 41.6202 29.4306Z" fill="#D01273"/>
<path d="M360.654 633.192C360.205 608.936 323.704 608.936 323.255 633.192C323.252 633.393 323.25 633.595 323.25 633.798C323.25 646.751 330.914 657.913 341.955 663C352.995 657.913 360.66 646.751 360.66 633.798C360.66 633.595 360.658 633.393 360.654 633.192Z" fill="#FC315F"/>
<path d="M341.955 663C330.914 657.913 323.25 646.752 323.25 633.797C323.25 633.595 323.252 633.393 323.256 633.192C323.478 621.147 332.592 615.083 341.767 615.001C333.822 615.095 325.936 621.159 325.743 633.192C325.739 633.393 325.738 633.595 325.738 633.797C325.738 646.752 332.383 657.913 341.955 663Z" fill="#D61E4F"/>
<path d="M356.012 634.401C356.012 639.491 353.307 643.949 349.255 646.414C349.201 646.448 349.146 646.48 349.091 646.512C347.602 647.393 345.935 648.006 344.159 648.286C343.441 648.399 342.705 648.458 341.955 648.458C340.473 648.458 339.045 648.229 337.703 647.803C336.686 647.481 335.72 647.046 334.818 646.512C334.751 646.473 334.685 646.433 334.619 646.392C330.586 643.923 327.897 639.476 327.897 634.401C327.897 626.636 334.191 620.343 341.955 620.343C342.705 620.343 343.441 620.401 344.159 620.515C350.876 621.572 356.012 627.387 356.012 634.401Z" fill="#BBD8DD"/>
<path d="M356.012 634.401C356.012 639.559 353.234 644.068 349.091 646.512C347.602 647.393 345.935 648.006 344.159 648.286C342.382 648.006 340.716 647.393 339.226 646.512C335.083 644.068 332.304 639.559 332.304 634.401C332.304 627.386 337.442 621.572 344.159 620.515C350.876 621.572 356.012 627.387 356.012 634.401Z" fill="#E2EFF2"/>
<path d="M349.255 646.414C349.201 646.448 349.146 646.48 349.091 646.512C347.602 647.393 345.935 648.006 344.159 648.286C343.441 648.399 342.705 648.458 341.955 648.458C340.473 648.458 339.045 648.229 337.703 647.803C336.686 647.481 335.72 647.046 334.818 646.512C334.751 646.473 334.685 646.433 334.619 646.392C334.978 645.123 335.655 643.99 336.561 643.084C337.936 641.708 339.837 640.859 341.934 640.859C342.508 640.859 343.067 640.923 343.604 641.043C343.623 641.046 343.642 641.051 343.661 641.056C345.066 641.382 346.322 642.099 347.308 643.084C348.218 643.996 348.898 645.136 349.255 646.414Z" fill="#FCBB65"/>
<path d="M349.255 646.414C349.201 646.448 349.146 646.48 349.091 646.512C347.602 647.393 345.935 648.006 344.159 648.286C343.441 648.399 342.705 648.458 341.955 648.458C340.473 648.458 339.045 648.229 337.703 647.803C337.859 645.966 338.669 644.315 339.899 643.084C340.9 642.085 342.175 641.362 343.604 641.043C343.623 641.046 343.642 641.051 343.661 641.056C345.066 641.382 346.322 642.099 347.308 643.084C348.218 643.996 348.898 645.136 349.255 646.414Z" fill="#FED563"/>
<path d="M349.533 631.605V636.78C349.533 640.483 346.884 643.567 343.378 644.241C342.911 644.331 342.428 644.378 341.934 644.378C337.738 644.378 334.336 640.976 334.336 636.78V631.605C334.336 627.408 337.738 624.006 341.934 624.006C342.428 624.006 342.911 624.053 343.378 624.143C344.897 624.435 346.256 625.18 347.308 626.232C348.683 627.607 349.533 629.507 349.533 631.605Z" fill="#FFD0A6"/>
<path d="M343.416 644.233C343.403 644.237 343.391 644.239 343.378 644.241C342.91 644.331 342.428 644.378 341.935 644.378C337.738 644.378 334.336 640.976 334.336 636.78V631.605C334.336 627.409 337.738 624.006 341.935 624.006C342.428 624.006 342.91 624.054 343.378 624.144C343.389 624.146 343.402 624.148 343.413 624.15C339.925 624.839 337.295 627.915 337.295 631.605V636.78C337.295 640.471 339.926 643.546 343.416 644.233Z" fill="#E8B182"/>
<path d="M341.934 640.38C341.017 640.38 340.099 640.031 339.4 639.332C339.156 639.087 339.156 638.691 339.4 638.446C339.645 638.202 340.041 638.202 340.285 638.446C341.195 639.356 342.674 639.356 343.583 638.446C343.828 638.202 344.224 638.202 344.469 638.446C344.713 638.691 344.713 639.087 344.469 639.332C343.77 640.031 342.852 640.38 341.934 640.38Z" fill="#E8B182"/>
<path d="M349.533 631.605V632.727C340.537 632.715 337.547 629.036 337.547 629.036C337.547 630.565 336.019 632.177 334.336 632.727V631.605C334.336 627.408 337.738 624.006 341.934 624.006C342.428 624.006 342.911 624.053 343.378 624.143C344.897 624.435 346.256 625.18 347.308 626.232C348.683 627.607 349.533 629.507 349.533 631.605Z" fill="#5B5B68"/>
<path d="M343.412 624.151C340.723 624.682 338.542 626.632 337.686 629.189C337.591 629.091 337.547 629.036 337.547 629.036C337.547 630.565 336.018 632.177 334.336 632.727V631.605C334.336 627.409 337.737 624.006 341.934 624.006C342.428 624.006 342.91 624.054 343.377 624.144C343.388 624.146 343.401 624.148 343.412 624.151Z" fill="#40404C"/>
<path d="M338.624 636.898C338.279 636.898 337.998 636.617 337.998 636.272V634.404C337.998 634.058 338.279 633.778 338.624 633.778C338.97 633.778 339.25 634.058 339.25 634.404V636.272C339.25 636.617 338.97 636.898 338.624 636.898Z" fill="#40404C"/>
<path d="M345.245 636.898C344.899 636.898 344.619 636.617 344.619 636.272V634.404C344.619 634.058 344.899 633.778 345.245 633.778C345.591 633.778 345.871 634.058 345.871 634.404V636.272C345.871 636.617 345.591 636.898 345.245 636.898Z" fill="#40404C"/>
</svg>
