<svg width="24" height="20" viewBox="0 0 24 20" fill="none" xmlns="http://www.w3.org/2000/svg">
<path d="M7.55016 19.7501C16.6045 19.7501 21.5583 12.2468 21.5583 5.74195C21.5583 5.53101 21.5536 5.31539 21.5442 5.10445C22.5079 4.40755 23.3395 3.54435 24 2.55539C23.1025 2.95469 22.1496 3.21547 21.1739 3.32883C22.2013 2.713 22.9705 1.74556 23.3391 0.605858C22.3726 1.17865 21.3156 1.5827 20.2134 1.8007C19.4708 1.01165 18.489 0.489208 17.4197 0.314143C16.3504 0.139077 15.2532 0.321142 14.2977 0.832188C13.3423 1.34323 12.5818 2.1548 12.1338 3.1414C11.6859 4.12801 11.5754 5.23471 11.8195 6.29039C9.86249 6.19218 7.94794 5.6838 6.19998 4.79819C4.45203 3.91258 2.90969 2.66953 1.67297 1.14961C1.0444 2.23334 0.852057 3.51574 1.13503 4.73618C1.418 5.95663 2.15506 7.02354 3.19641 7.72008C2.41463 7.69526 1.64998 7.48477 0.965625 7.10601V7.16695C0.964925 8.30424 1.3581 9.40668 2.07831 10.2869C2.79852 11.167 3.80132 11.7707 4.91625 11.9951C4.19206 12.1932 3.43198 12.2221 2.69484 12.0795C3.00945 13.0575 3.62157 13.913 4.44577 14.5264C5.26997 15.1399 6.26512 15.4807 7.29234 15.5013C5.54842 16.8712 3.39417 17.6142 1.17656 17.6107C0.783287 17.6101 0.390399 17.586 0 17.5385C2.25286 18.9838 4.87353 19.7515 7.55016 19.7501Z" fill="#33869D"/>
</svg>
