<svg width="28" height="20" viewBox="0 0 28 20" fill="none" xmlns="http://www.w3.org/2000/svg">
<path d="M27.7211 4.40007C27.7211 4.40007 27.4477 2.4696 26.6055 1.62194C25.5391 0.506317 24.3469 0.500848 23.8 0.435223C19.8844 0.150848 14.0055 0.150848 14.0055 0.150848H13.9945C13.9945 0.150848 8.11562 0.150848 4.2 0.435223C3.65313 0.500848 2.46094 0.506317 1.39453 1.62194C0.552344 2.4696 0.284375 4.40007 0.284375 4.40007C0.284375 4.40007 0 6.6696 0 8.93366V11.0555C0 13.3196 0.278906 15.5891 0.278906 15.5891C0.278906 15.5891 0.552344 17.5196 1.38906 18.3673C2.45547 19.4829 3.85547 19.4446 4.47891 19.5649C6.72109 19.7782 14 19.8438 14 19.8438C14 19.8438 19.8844 19.8329 23.8 19.554C24.3469 19.4883 25.5391 19.4829 26.6055 18.3673C27.4477 17.5196 27.7211 15.5891 27.7211 15.5891C27.7211 15.5891 28 13.3251 28 11.0555V8.93366C28 6.6696 27.7211 4.40007 27.7211 4.40007ZM11.107 13.6313V5.76179L18.6703 9.71022L11.107 13.6313Z" fill="#33869D"/>
</svg>
