<svg width="52" height="56" viewBox="0 0 52 56" fill="none" xmlns="http://www.w3.org/2000/svg">
<path d="M14.5419 18.0828H4.05221C1.81435 18.0828 0 19.9807 0 22.3221V33.3889C0 35.7298 1.81435 37.6282 4.05221 37.6282H14.4653C17.0743 29.7767 16.0012 22.7555 14.5419 18.0828Z" fill="#288A3F"/>
<path d="M47.9477 18.0828H43.6229C29.3405 24.7843 24.9186 32.2999 20.634 39.5896C19.3984 41.691 18.142 43.8213 16.6585 45.9237V50.8141C16.6585 53.1551 18.4714 55.0525 20.7097 55.0525H31.2892C33.5276 55.0525 35.3414 53.1551 35.3414 50.8141V37.6282H47.9477C50.1856 37.6282 52 35.7298 52 33.3889V22.3221C52 19.9807 50.1856 18.0828 47.9477 18.0828Z" fill="#288A3F"/>
<path d="M13.5363 11.0829C13.5363 11.0829 27.0901 32.3501 6.75873 53.3215C22.8545 41.8021 17.2067 26.4427 47.421 14.3321C29.3488 16.6949 20.8772 15.513 13.5363 11.0829Z" fill="#33869D"/>
<path d="M27.5407 11.5142C25.1704 11.5142 23.2493 9.50464 23.2493 7.02467C23.2493 4.54572 25.1704 2.53566 27.5407 2.53566C29.911 2.53566 31.8321 4.54572 31.8321 7.02467C31.8321 9.50464 29.911 11.5142 27.5407 11.5142ZM31.2892 0.658051H20.7097C18.4714 0.658051 16.6585 2.55595 16.6585 4.89687V10.5886C20.9314 12.6702 25.6904 13.5811 32.0562 13.5811C33.0973 13.5811 34.1912 13.5562 35.3414 13.5065V4.89687C35.3414 2.55595 33.5276 0.658051 31.2892 0.658051Z" fill="#288A3F"/>
</svg>
