<svg width="130" height="56" viewBox="0 0 130 56" fill="none" xmlns="http://www.w3.org/2000/svg">
<path d="M14.5419 18.0828H4.05221C1.81435 18.0828 0 19.9807 0 22.3221V33.3889C0 35.7298 1.81435 37.6282 4.05221 37.6282H14.4653C17.0743 29.7767 16.0012 22.7555 14.5419 18.0828Z" fill="#288A3F"/>
<path d="M47.9477 18.0828H43.6229C29.3405 24.7843 24.9186 32.2999 20.634 39.5896C19.3984 41.691 18.142 43.8213 16.6585 45.9237V50.8141C16.6585 53.1551 18.4714 55.0525 20.7097 55.0525H31.2892C33.5276 55.0525 35.3414 53.1551 35.3414 50.8141V37.6282H47.9477C50.1856 37.6282 52 35.7298 52 33.3889V22.3221C52 19.9807 50.1856 18.0828 47.9477 18.0828Z" fill="#288A3F"/>
<path d="M13.5363 11.0829C13.5363 11.0829 27.0901 32.3501 6.75873 53.3215C22.8545 41.8021 17.2067 26.4427 47.421 14.3321C29.3488 16.6949 20.8772 15.513 13.5363 11.0829Z" fill="#33869D"/>
<path d="M27.5407 11.5142C25.1704 11.5142 23.2493 9.50464 23.2493 7.02467C23.2493 4.54572 25.1704 2.53566 27.5407 2.53566C29.911 2.53566 31.8321 4.54572 31.8321 7.02467C31.8321 9.50464 29.911 11.5142 27.5407 11.5142ZM31.2892 0.658051H20.7097C18.4714 0.658051 16.6585 2.55595 16.6585 4.89687V10.5886C20.9314 12.6702 25.6904 13.5811 32.0562 13.5811C33.0973 13.5811 34.1912 13.5562 35.3414 13.5065V4.89687C35.3414 2.55595 33.5276 0.658051 31.2892 0.658051Z" fill="#288A3F"/>
<path d="M72.7762 24.8394L68.7425 30.2174H68.2802L64.3355 24.8214V33.8275H62V21.442H64.6901L68.5625 26.7668L72.4397 21.442H75.1105V33.8275H72.7762V24.8394Z" fill="#33869D"/>
<path d="M85.3889 33.8098H76.1172C76.1172 29.6855 76.1172 25.5459 76.1172 21.4244H85.3889V23.6883H78.4353V26.5378H85.1417V28.7139H78.4353V31.5095H85.3889V33.8098Z" fill="#33869D"/>
<path d="M88.515 31.5634H91.0616C93.8749 31.5634 94.9875 29.5106 94.9359 27.4932C94.883 25.5659 93.752 23.6366 91.0616 23.6366H88.515V31.5634ZM97.2521 27.5094C97.3082 30.6431 95.3967 33.8098 91.0616 33.8098C89.5398 33.8098 87.7177 33.8098 86.1973 33.8098V21.4244C87.7177 21.4244 89.5398 21.4244 91.0616 21.4244C95.3086 21.4244 97.2004 24.4492 97.2521 27.5094Z" fill="#33869D"/>
<path d="M105.085 24.4152C104.663 23.7079 103.494 23.0351 102.151 23.0351C100.415 23.0351 99.586 23.7601 99.586 24.6817C99.586 25.7591 100.859 26.0598 102.346 26.2392C104.926 26.5555 107.334 27.2289 107.334 30.1836C107.334 32.944 104.892 34.1282 102.133 34.1282C99.6019 34.1282 97.6565 33.3499 96.7362 31.0857L98.6816 30.0758C99.2311 31.4397 100.663 32.0396 102.168 32.0396C103.636 32.0396 105.016 31.5278 105.016 30.1836C105.016 29.0149 103.795 28.537 102.151 28.3614C99.6199 28.0591 97.2844 27.386 97.2844 24.6107C97.2844 22.0619 99.7968 21.0184 102.079 21C104.006 21 106.005 21.5495 106.946 23.4616L105.085 24.4152Z" fill="#33869D"/>
<path d="M113.452 24.0245L111.155 29.2973H115.754L113.452 24.0245ZM116.69 31.4737H110.216L109.156 33.8098H106.624L112.179 21.4244H114.727L120.282 33.8098H117.735L116.69 31.4737Z" fill="#33869D"/>
<path d="M120.549 33.8098V21.4418H129.447V23.6883H122.883V27.0686H129.093V29.2254H122.883V33.8098H120.549Z" fill="#33869D"/>
</svg>
